<?xml version="1.0" standalone="no"?>
<!DOCTYPE svg PUBLIC "-//W3C//DTD SVG 20010904//EN"
 "http://www.w3.org/TR/2001/REC-SVG-20010904/DTD/svg10.dtd">
<svg version="1.0" xmlns="http://www.w3.org/2000/svg"
 width="500.000000pt" height="500.000000pt" viewBox="0 0 500.000000 500.000000"
 preserveAspectRatio="xMidYMid meet">

<g transform="translate(0.000000,500.000000) scale(0.100000,-0.100000)"
fill="#000000" stroke="none">
<path d="M0 2500 l0 -2500 2500 0 2500 0 0 2500 0 2500 -2500 0 -2500 0 0
-2500z m2517 1068 c5 -7 40 -80 78 -163 37 -82 78 -159 90 -170 13 -11 25 -27
28 -36 8 -24 -20 -59 -48 -59 -28 0 -59 39 -50 63 6 13 -95 250 -114 270 -10
10 -353 -737 -355 -774 -3 -44 -29 -65 -63 -53 -42 14 -44 60 -5 94 22 18 77
130 213 425 101 220 188 403 194 407 14 11 21 10 32 -4z m356 -719 c8 -11 12
-29 10 -40 -3 -12 56 -152 157 -370 192 -416 190 -405 39 -341 -59 26 -103 38
-119 35 -37 -7 -67 28 -54 65 12 36 65 43 86 13 14 -20 106 -67 114 -58 8 8
-275 610 -290 619 -30 17 -39 47 -21 74 19 30 59 32 78 3z m-341 -459 c24 -10
53 -17 65 -14 25 7 53 -20 53 -51 0 -26 -24 -55 -46 -55 -15 0 -54 35 -54 48
0 4 -13 13 -30 19 -27 10 -55 0 -362 -133 -183 -80 -338 -142 -345 -140 -19 8
-16 26 12 90 14 31 25 70 25 86 0 54 50 78 85 40 21 -24 13 -70 -14 -77 -19
-5 -48 -53 -32 -53 5 0 587 252 597 259 1 1 21 -8 46 -19z m-552 -400 c0 -5
-4 -10 -8 -10 -4 0 -8 -16 -8 -35 0 -19 3 -35 7 -35 4 0 9 -9 12 -20 3 -13 0
-20 -9 -20 -16 0 -17 -13 -5 -56 10 -36 -2 -64 -28 -64 -15 0 -18 7 -17 33 1
17 -1 47 -5 65 -4 17 -3 32 2 32 13 0 11 28 -2 32 -9 3 -9 9 0 25 7 14 8 24 1
28 -15 9 12 34 38 35 12 0 22 -4 22 -10z m195 1 c-3 -5 5 -11 17 -13 27 -4 37
-28 11 -28 -17 -1 -17 -2 2 -15 23 -18 32 -74 13 -87 -10 -7 -10 -11 -1 -14
15 -7 6 -31 -21 -58 -18 -18 -33 -21 -111 -21 -75 0 -89 2 -86 15 3 8 5 29 5
45 1 17 5 33 10 36 13 10 -2 76 -20 83 -8 3 -13 10 -9 15 3 6 12 8 20 4 9 -3
15 1 15 11 0 9 -8 16 -17 17 -12 1 -10 4 7 9 36 11 172 12 165 1z m277 -9 c9
-9 9 -12 0 -12 -7 0 -12 -4 -12 -10 0 -5 7 -10 15 -10 8 0 15 -7 15 -15 0 -8
-6 -15 -14 -15 -9 0 -17 -15 -21 -40 -4 -22 -12 -40 -18 -40 -7 -1 -2 -9 10
-19 12 -10 19 -21 16 -25 -3 -3 2 -15 12 -26 18 -19 17 -20 -6 -20 -31 0 -40
7 -67 52 -17 27 -19 37 -10 41 7 3 -1 6 -19 6 -41 1 -63 -8 -63 -25 0 -8 11
-15 28 -15 l27 -2 -29 -4 c-24 -4 -27 -8 -23 -29 4 -25 -14 -32 -40 -16 -15 9
-14 74 1 85 8 6 7 10 -1 14 -7 2 -13 13 -13 24 0 17 8 19 70 19 57 0 74 4 90
20 11 11 20 22 20 25 0 3 -38 5 -84 5 -77 0 -115 11 -84 23 10 4 9 8 -2 17
-11 8 9 10 87 8 63 -2 107 -8 115 -16z m263 -10 c0 -12 5 -26 12 -30 15 -9 11
-126 -5 -145 -7 -8 -9 -17 -6 -20 13 -12 -48 -27 -111 -27 -47 0 -64 4 -69 15
-3 8 -11 15 -18 15 -9 0 -13 17 -13 55 0 30 3 55 8 55 12 0 8 48 -5 52 -17 6
0 27 35 43 20 8 59 13 102 12 66 -2 70 -3 70 -25z m115 18 c0 -5 -4 -10 -8
-10 -4 0 -8 -16 -8 -35 0 -19 3 -35 7 -35 4 0 9 -9 12 -20 3 -13 0 -20 -9 -20
-16 0 -17 -13 -5 -56 10 -36 -2 -64 -28 -64 -15 0 -18 7 -17 33 1 17 -1 47 -5
65 -4 17 -3 32 2 32 13 0 11 28 -2 32 -9 3 -9 9 0 25 7 14 8 24 1 28 -15 9 12
34 38 35 12 0 22 -4 22 -10z m195 1 c-3 -5 5 -11 17 -13 27 -4 37 -28 11 -28
-17 -1 -17 -2 2 -15 23 -18 32 -74 13 -87 -10 -7 -10 -11 -1 -14 15 -7 6 -31
-21 -58 -18 -18 -33 -21 -111 -21 -75 0 -89 2 -86 15 3 8 5 29 5 45 1 17 5 33
10 36 13 10 -2 76 -20 83 -8 3 -13 10 -9 15 3 6 12 8 20 4 9 -3 15 1 15 11 0
9 -8 16 -17 17 -12 1 -10 4 7 9 36 11 172 12 165 1z m-717 -78 c-10 -2 -26 -2
-35 0 -10 3 -2 5 17 5 19 0 27 -2 18 -5z m-470 -363 c5 -13 3 -13 -11 -1 -19
15 -51 7 -45 -11 3 -7 15 -15 29 -18 17 -4 24 -13 24 -30 0 -21 -5 -25 -30
-25 -22 0 -31 5 -33 20 -4 20 -3 20 11 1 9 -12 20 -17 31 -13 23 9 15 31 -13
35 -25 4 -36 24 -27 48 7 19 57 15 64 -6z m149 -62 c-2 -18 -4 -6 -4 27 0 33
2 48 4 33 2 -15 2 -42 0 -60z m211 62 c5 -13 3 -13 -11 -1 -19 15 -51 7 -45
-11 3 -7 15 -15 29 -18 17 -4 24 -13 24 -30 0 -21 -5 -25 -30 -25 -22 0 -31 5
-33 20 -4 20 -3 20 11 1 9 -12 20 -17 31 -13 23 9 15 31 -13 35 -25 4 -36 24
-27 48 7 19 57 15 64 -6z m190 13 c-14 -3 -18 -16 -20 -56 l-2 -52 -3 52 c-3
38 -8 53 -21 56 -9 3 1 5 23 5 22 0 32 -2 23 -5z m180 0 c-26 -4 -28 -8 -28
-48 0 -40 2 -44 28 -48 25 -4 25 -4 -5 -6 l-33 -1 0 55 0 55 33 -1 c30 -2 30
-2 5 -6z m186 -31 c12 -42 22 -40 30 3 4 21 13 35 21 35 11 0 15 -14 15 -55 0
-61 -20 -77 -21 -17 l-1 37 -11 -32 c-18 -47 -22 -47 -38 -1 l-13 43 -7 -45
-6 -45 -1 58 c-2 65 16 75 32 19z m261 -13 c9 -28 15 -53 12 -55 -3 -3 -10 12
-17 33 -19 57 -26 59 -40 9 -7 -26 -16 -46 -20 -46 -9 0 6 64 21 93 16 28 26
20 44 -34z m213 33 c3 -11 1 -11 -17 -1 -15 10 -23 11 -32 2 -16 -16 -2 -33
27 -33 22 0 25 -4 22 -27 -2 -24 -8 -28 -33 -28 -22 0 -31 5 -33 20 -4 20 -3
20 11 1 16 -22 47 -16 47 9 0 9 -9 15 -25 15 -27 0 -41 20 -31 46 7 19 57 16
64 -4z m-653 -32 c3 -5 1 -10 -4 -10 -6 0 -11 5 -11 10 0 6 2 10 4 10 3 0 8
-4 11 -10z"/>
<path d="M2043 1935 c15 -11 18 -24 15 -62 -3 -48 -3 -48 30 -51 17 -2 32 -8
32 -13 0 -6 12 -9 27 -7 26 3 28 6 31 63 2 57 1 61 -25 73 -15 6 -50 12 -77
12 -46 -1 -49 -2 -33 -15z"/>
<path d="M2560 1921 c0 -26 4 -30 33 -34 l32 -4 -36 -1 c-30 -2 -37 -6 -41
-26 -8 -40 13 -56 75 -56 62 0 76 15 58 64 -7 17 -7 26 -1 26 16 0 11 47 -6
54 -9 3 -38 6 -65 6 -48 0 -49 -1 -49 -29z m93 2 c-7 -2 -21 -2 -30 0 -10 3
-4 5 12 5 17 0 24 -2 18 -5z"/>
<path d="M2893 1935 c15 -11 18 -24 15 -62 -3 -48 -3 -48 30 -51 17 -2 32 -8
32 -13 0 -6 12 -9 27 -7 26 3 28 6 31 63 2 57 1 61 -25 73 -15 6 -50 12 -77
12 -46 -1 -49 -2 -33 -15z"/>
</g>
</svg>
