<?xml version="1.0" encoding="UTF-8"?>
<!DOCTYPE svg PUBLIC "-//W3C//DTD SVG 1.1//EN" "http://www.w3.org/Graphics/SVG/1.1/DTD/svg11.dtd">
<svg xmlns="http://www.w3.org/2000/svg" xml:space="preserve" width="width" height="height" version="1.1" 
 style="shape-rendering:geometricPrecision; text-rendering:geometricPrecision; image-rendering:optimizeQuality; fill-rule:evenodd; clip-rule:evenodd"
 viewBox="0 0 1707 1707" xmlns:xlink="http://www.w3.org/1999/xlink">
 <defs>
  <style type="text/css">
   <![CDATA[
    .fil2 {fill:#006df0}
    .fil1 {fill:#000000}
    .fil0 {fill:#58535A}
    .fil4 {fill:#FF961E}
    .fil3 {fill:#ff5023}
    .fil5 {fill:white}
   ]]>
  </style>
 </defs>
 <g id="Layer_x0020_1">
  <metadata id="CorelCorpID_0Corel-Layer"/>
  <g id="_323082840">
   <path class="fil1" d="M763 1740c-96,0 -174,-77 -174,-173 0,-96 78,-174 174,-174 96,0 174,78 174,174 0,96 -78,173 -174,173zm0 -81c51,0 92,-41 92,-92 0,-51 -41,-93 -92,-93 -51,0 -93,42 -93,93 0,51 42,92 93,92z"/>
   <path class="fil1" d="M763 1683c-65,0 -117,-52 -117,-116 0,-65 52,-117 117,-117 64,0 117,52 117,117 0,64 -53,116 -117,116zm0 -24c51,0 92,-41 92,-92 0,-51 -41,-93 -92,-93 -51,0 -93,42 -93,93 0,51 42,92 93,92z"/>
   <path class="fil1" d="M1364 1737c-96,0 -174,-78 -174,-173 0,-96 78,-174 174,-174 96,0 174,78 174,174 0,95 -78,173 -174,173zm0 -81c51,0 93,-42 93,-92 0,-51 -42,-93 -93,-93 -51,0 -92,42 -92,93 0,50 41,92 92,92z"/>
   <path class="fil1" d="M1247 1564c0,-65 53,-117 117,-117 65,0 117,52 117,117 0,64 -52,116 -117,116 -64,0 -117,-52 -117,-116zm117 92c51,0 93,-42 93,-92 0,-51 -42,-93 -93,-93 -51,0 -92,42 -92,93 0,50 41,92 92,92z"/>
   <path class="fil1" d="M375 406c-59,-219 -34,-202 -284,-134 -81,21 -113,-101 -33,-122 120,-33 219,-79 313,-25 46,27 78,69 92,120l34 129 109 629 828 12c83,1 81,127 -2,126l-804 -10 16 88 789 0c83,0 83,126 0,126l-842 0c-30,0 -56,-22 -62,-52l-154 -887z"/>
   <path class="fil2" d="M1436 1141c0,0 -2,0 -2,0l-806 -10 -143 -804 1033 0c54,0 107,24 141,65 29,36 41,79 34,122l-84 462c-17,99 -87,165 -173,165z"/>
  </g>
  <g id="_323078352">
   <path class="fil3" d="M1043 797c-220,0 -398,-178 -398,-398 0,-220 178,-398 398,-398 220,0 398,178 398,398 0,220 -178,398 -398,398z"/>
   <path class="fil4" d="M1043 738c-187,0 -339,-152 -339,-339 0,-187 152,-339 339,-339 187,0 339,152 339,339 0,187 -152,339 -339,339z"/>
   <path class="fil5" d="M1043 308l-2 0 -21 0 0 45 91 0c25,0 45,20 45,45l0 136c0,25 -20,45 -45,45l-23 0 0 45c0,25 -20,45 -45,45 -25,0 -45,-21 -45,-45l0 -45 -23 0c-25,0 -45,-20 -45,-45 0,-25 20,-45 45,-45l91 0 0 -46 -91 0c-25,0 -45,-20 -45,-45l0 -136c0,-25 20,-45 45,-45l23 0 0 -42c0,-25 20,-46 45,-46 25,0 45,21 45,46l0 42 23 0c25,0 45,20 45,45 0,25 -20,46 -45,46l-66 0 -2 0z"/>
  </g>
 </g>
</svg>