<?xml version="1.0" encoding="UTF-8" standalone="no"?>
<!DOCTYPE svg PUBLIC "-//W3C//DTD SVG 1.1//EN" "http://www.w3.org/Graphics/SVG/1.1/DTD/svg11.dtd">
<svg xmlns="http://www.w3.org/2000/svg" xml:space="preserve" width="800px" height="800px" version="1.1" 
 style="shape-rendering:geometricPrecision; text-rendering:geometricPrecision; image-rendering:optimizeQuality; fill-rule:evenodd; clip-rule:evenodd"
 viewBox="0 0 64 64" xmlns:xlink="http://www.w3.org/1999/xlink">
<g id="Cart">
<path d="M61,51v8a2,2,0,0,1-4,0V51Z" style="fill:#FFFFFF"/>
<path d="M59,61H43a2.006,2.006,0,0,1-2-2V37l2.66,4,2.67-4,2.66,4,2.67-4,2.67,4L57,37V59A2.006,2.006,0,0,0,59,61Z" style="fill:#FFFFFF"/>
<path d="M59,61H55a2.006,2.006,0,0,1-2-2V39.01L54.33,41,57,37V59A2.006,2.006,0,0,0,59,61Z" style="fill:#FFFFFF"/>
<circle cx="47" cy="17" r="14" style="fill:#FF961E"/>
<circle cx="52" cy="22" r="3" style="fill:#FFFFFF"/>
<circle cx="42" cy="12" r="3" style="fill:#FFFFFF"/>
<path d="M34,37V49a2.006,2.006,0,0,1-2,2H14L10,35H32A2.006,2.006,0,0,1,34,37Z" style="fill:#006df0"/>
<path d="M34,37V49a2.006,2.006,0,0,1-2,2H28a2.006,2.006,0,0,0,2-2V37a2.006,2.006,0,0,0-2-2h4A2.006,2.006,0,0,1,34,37Z" style="fill:#006df0"/>
<circle cx="31" cy="59" r="2" style="fill:#FFFFFF"/>
<circle cx="18" cy="59" r="2" style="fill:#FFFFFF"/>
<path d="M33,59a2,2,0,0,1-3,1.73,2,2,0,0,0,0-3.46A2,2,0,0,1,33,59Z" style="fill:#FFFFFF"/>
<path d="M20,59a2,2,0,0,1-3,1.73,2,2,0,0,0,0-3.46A2,2,0,0,1,20,59Z" style="fill:#FFFFFF"/>
<path d="M61,17A14,14,0,0,1,47,31a14.6,14.6,0,0,1-2-.14A14,14,0,0,0,45,3.14,14.6,14.6,0,0,1,47,3,14,14,0,0,1,61,17Z" style="fill:#ff5023"/>
<path d="M55,22a3,3,0,0,1-4.5,2.6,3,3,0,0,0,0-5.2A3,3,0,0,1,55,22Z" style="fill:#FFFFFF"/>
<path d="M45,12a3,3,0,0,1-4.5,2.6,3,3,0,0,0,0-5.2A3,3,0,0,1,45,12Z" style="fill:#FFFFFF"/>
<path d="M28,59a3,3,0,1,0,3-3A3,3,0,0,0,28,59Zm3-1a1,1,0,1,1-1,1A1,1,0,0,1,31,58Z"/>
<path d="M15,59a3,3,0,1,0,3-3A3,3,0,0,0,15,59Zm3-1a1,1,0,1,1-1,1A1,1,0,0,1,18,58Z"/>
<path d="M32,34H10.535l-3.7-5.555A1,1,0,0,0,6,28H2v2H5.465l3.607,5.411L13,51.122V55a1,1,0,0,0,1,1H34V54H15V52H32a3,3,0,0,0,3-3V37A3,3,0,0,0,32,34Zm1,15a1,1,0,0,1-1,1H14.781l-3.5-14H32a1,1,0,0,1,1,1Z"/>
<path d="M62,17A15,15,0,1,0,47,32,15.017,15.017,0,0,0,62,17ZM34,17A13,13,0,1,1,47,30,13.015,13.015,0,0,1,34,17Z"/>
<rect x="36.183" y="16" width="21.633" height="2" transform="translate(6.784 46.676) rotate(-56.31)"/>
<path d="M46,12a4,4,0,1,0-4,4A4,4,0,0,0,46,12Zm-6,0a2,2,0,1,1,2,2A2,2,0,0,1,40,12Z"/>
<path d="M48,22a4,4,0,1,0,4-4A4,4,0,0,0,48,22Zm6,0a2,2,0,1,1-2-2A2,2,0,0,1,54,22Z"/>
<path d="M13,23a1,1,0,0,0,.707-.293l4-4-1.414-1.414L14,19.586V2H12V19.586L9.707,17.293,8.293,18.707l4,4A1,1,0,0,0,13,23Z"/>
<path d="M25,29a1,1,0,0,0,.707-.293l4-4-1.414-1.414L26,25.586V8H24V25.586l-2.293-2.293-1.414,1.414,4,4A1,1,0,0,0,25,29Z"/>
<path d="M61,50H58V37a1,1,0,0,0-1.832-.555L54.329,39.2l-1.838-2.754a1,1,0,0,0-1.664,0L48.993,39.2l-1.834-2.752a1.039,1.039,0,0,0-1.664,0L43.662,39.2l-1.83-2.75A1,1,0,0,0,40,37V59a3,3,0,0,0,3,3H59a3,3,0,0,0,3-3V51A1,1,0,0,0,61,50ZM42,59V40.308l.83,1.246a1,1,0,0,0,1.664,0L46.327,38.8l1.834,2.752a1.039,1.039,0,0,0,1.664,0L51.66,38.8,53.5,41.555a1,1,0,0,0,1.664,0L56,40.3V59a2.966,2.966,0,0,0,.184,1H43A1,1,0,0,1,42,59Zm18,0a1,1,0,0,1-2,0V52h2Z"/>
<rect x="44" y="44" width="10" height="2"/>
<rect x="44" y="50" width="10" height="2"/>
<rect x="44" y="56" width="10" height="2"/>
</g>
</svg>